<svg width="44" height="44" viewBox="0 0 44 44" xmlns="http://www.w3.org/2000/svg">
    <g fill="none" fill-rule="evenodd">
        <path d="M0 0h44v44H0z"/>
        <path d="M29 27v-5.297C29 18.027 25.856 15 22 15c-3.776 0-6.869 2.902-6.996 6.474l-.004.229v1.275l.001.147.001 2.08v1.653l-.001.05L15 27c0 1.288-.324 1.955-.97 2h-2c.646-.045.97-.712.97-2v-5.297c0-4.136 3.014-7.608 7.012-8.488a2 2 0 1 1 3.976.002c3.916.86 6.887 4.208 7.008 8.23l.004.256v1l-.001.311V26.921L31 27c.182 1.33.515 1.996.998 2A1 1 0 1 1 32 31H12a1 1 0 0 1 0-2h17.998c-.665-.004-.998-.67-.998-2z" fill="#00256C" fill-rule="nonzero"/>
        <path d="M19.591 29.833c.296 1.44.87 2.5 2.4 2.5 1.532 0 2.105-1.06 2.4-2.5h-4.8zM18 29.748V29h8v.748C26 32.093 24.206 34 22 34s-4-1.907-4-4.252z" fill="#00256C"/>
    </g>
</svg>
