<svg xmlns="http://www.w3.org/2000/svg" width="64" height="64" viewBox="0 0 64 64">
    <g fill="none" fill-rule="evenodd" stroke="#767676" transform="translate(2.667 2.667)">
        <circle cx="29.333" cy="29.333" r="27.333" stroke-width="4"/>
        <path fill="#767676" stroke-width=".667" d="M29.111 36.889c1.35 0 2.445 1.094 2.445 2.444 0 1.35-1.095 2.445-2.445 2.445-1.35 0-2.444-1.095-2.444-2.445 0-1.35 1.094-2.444 2.444-2.444zm0-19.556c1.013 0 1.833.821 1.833 1.834V32.61c0 1.013-.82 1.833-1.833 1.833-1.012 0-1.833-.82-1.833-1.833V19.167c0-1.013.82-1.834 1.833-1.834z"/>
    </g>
</svg>
